<svg xmlns="http://www.w3.org/2000/svg" xmlns:xlink="http://www.w3.org/1999/xlink" width="261" height="60" viewBox="0 0 261 60"><defs><style>.a{fill:none;}.b{clip-path:url(#a);}.c{fill:#fff;}</style><clipPath id="a"><rect class="a" width="261" height="60" transform="translate(0 0.234)"/></clipPath></defs><g transform="translate(0 -0.234)"><g class="b"><path class="c" d="M27.007,74.817a.683.683,0,0,1-1.229.359l-9.811-9.155a.736.736,0,0,1,.248-1.322l13.761-5.5c.641-.256,1.024.081.853.749Z" transform="translate(-9.607 -36.287)"/><path class="c" d="M17.882,96.976c-.523.451-1.051.264-1.174-.415L14.02,81.683c-.123-.679.19-.85.694-.379l9.337,8.713a1.1,1.1,0,0,1-.034,1.675Z" transform="translate(-8.59 -49.746)"/><path class="c" d="M29.646,36.583A.842.842,0,0,1,29.3,38L15.615,43.47c-.641.256-.968-.064-.727-.71l5.62-15.1a.68.68,0,0,1,1.256-.226Z" transform="translate(-9.09 -16.633)"/><path class="c" d="M6.522,94.133c.123.679-.084.761-.459.181l-5.307-8.2A1.942,1.942,0,0,1,.824,84.06l2.371-3.176c.413-.553.85-.45.973.229Z" transform="translate(-0.303 -49.433)"/><path class="c" d="M7.442,43.617c-.241.646-.616.64-.834-.014L4.8,38.163a2.094,2.094,0,0,1,.533-2.033l6.462-5.857c.511-.463.733-.314.492.334Z" transform="translate(-2.894 -18.418)"/><path class="c" d="M2.843,63.177a2.7,2.7,0,0,1-.354,2.2L.632,67.861c-.412.553-.692.444-.622-.243L.9,58.983c.071-.687.307-.713.525-.058Z" transform="translate(0 -35.881)"/><path class="c" d="M20.107,20.159c.229.266,0,.864-.512,1.328l-2.908,2.636c-.512.463-.593.389-.181-.165l2.435-3.277c.411-.554.936-.789,1.167-.522" transform="translate(-9.971 -12.307)"/><path class="c" d="M59.241,117.477a.735.735,0,0,1-1.344.049l-7.6-11.059a.683.683,0,0,1,.537-1.163L66.1,103.728c.687-.071.963.359.615.955Z" transform="translate(-30.76 -63.67)"/><path class="c" d="M41.093,121.851c.391.569.176.853-.477.631L26.3,117.617a.656.656,0,0,1-.237-1.223l6.135-5.284a1.1,1.1,0,0,1,1.662.215Z" transform="translate(-15.796 -68.032)"/><path class="c" d="M65.489,74.691c.451.523.257,1.009-.429,1.08l-15.5,1.6a.817.817,0,0,1-.936-1.086L52.5,61.195c.172-.668.681-.788,1.131-.265Z" transform="translate(-29.826 -37.202)"/><path class="c" d="M94.291,115.455a.68.68,0,0,1-.409,1.209l-15.77,3.319c-.675.142-.943-.229-.595-.825l7.438-12.724a.841.841,0,0,1,1.452-.132Z" transform="translate(-47.491 -65.036)"/><path class="c" d="M40.1,141.07a1.942,1.942,0,0,1-2.046-.237l-7.319-6.463c-.517-.457-.406-.649.247-.427L43.508,138.2c.653.222.69.671.082,1Z" transform="translate(-18.666 -82.165)"/><path class="c" d="M87.428,144.443a2.093,2.093,0,0,1-2.09.226l-5.11-2.6c-.615-.313-.566-.685.11-.827l13.584-2.859c.675-.142.791.1.257.536Z" transform="translate(-48.984 -84.924)"/><path class="c" d="M61.812,151.2c-.69-.032-.756-.325-.148-.651l2.735-1.467a2.7,2.7,0,0,1,2.225-.025l3.994,2.031c.616.313.555.543-.135.511Z" transform="translate(-37.598 -91.358)"/><path class="c" d="M120.154,137.984c.23.266-.08.751-.689,1.076l-3.6,1.922c-.609.325-.67.233-.136-.2l3.037-2.484c.534-.437,1.159-.577,1.389-.31" transform="translate(-70.817 -84.62)"/><path class="c" d="M102.779,70.845c-.641.256-1.024-.081-.853-.75l3.822-14.869a.684.684,0,0,1,1.23-.359l9.811,9.155a.736.736,0,0,1-.248,1.322Z" transform="translate(-62.543 -33.515)"/><path class="c" d="M126.355,48.6c.122.679-.19.85-.694.378l-9.338-8.713a1.1,1.1,0,0,1,.033-1.675l6.135-5.284c.523-.451,1.052-.264,1.175.415Z" transform="translate(-71.18 -20.293)"/><path class="c" d="M112.445,102.182a.68.68,0,0,1-1.257.225l-7.883-9.152a.842.842,0,0,1,.347-1.417l13.685-5.47c.641-.256.969.064.728.71Z" transform="translate(-63.257 -52.963)"/><path class="c" d="M146.556,47.356a1.943,1.943,0,0,1-.069,2.059l-2.37,3.176c-.413.553-.851.45-.974-.229l-2.354-13.02c-.123-.679.084-.761.459-.181Z" transform="translate(-86.403 -23.802)"/><path class="c" d="M139.969,95.438a2.094,2.094,0,0,1-.533,2.033l-6.463,5.858c-.511.463-.733.313-.492-.334l4.841-13.011c.241-.647.616-.64.834.015Z" transform="translate(-81.265 -54.943)"/><path class="c" d="M151.376,81.5c-.071.687-.307.713-.525.058l-1.417-4.251a2.7,2.7,0,0,1,.354-2.2l1.856-2.488c.413-.553.693-.444.622.242Z" transform="translate(-91.671 -44.365)"/><path class="c" d="M131.725,128.368c-.412.554-.937.789-1.167.522s0-.864.512-1.328l2.907-2.635c.512-.464.594-.39.181.164Z" transform="translate(-80.09 -76.5)"/><path class="c" d="M80.008,26.937A.684.684,0,0,1,79.47,28.1L64.2,29.676c-.686.071-.963-.358-.615-.954l7.48-12.8a.736.736,0,0,1,1.344-.049Z" transform="translate(-38.939 -9.493)"/><path class="c" d="M100.021,26.249a1.1,1.1,0,0,1-1.662-.215L91.127,15.509c-.391-.569-.176-.852.477-.631l14.314,4.864a.656.656,0,0,1,.237,1.223Z" transform="translate(-55.819 -9.087)"/><path class="c" d="M77.19,68.15c-.172.668-.681.788-1.131.265L64.206,54.653c-.451-.523-.258-1.008.429-1.08l15.5-1.6a.817.817,0,0,1,.936,1.087Z" transform="translate(-39.264 -31.901)"/><path class="c" d="M44.7,27.209a.842.842,0,0,1-1.452.132L35.36,18.189a.68.68,0,0,1,.409-1.209l15.77-3.32c.676-.142.943.229.6.825Z" transform="translate(-21.554 -8.367)"/><path class="c" d="M91.8,6.029c-.654-.222-.69-.67-.082-1l3.492-1.873a1.943,1.943,0,0,1,2.047.237l7.319,6.463c.517.457.406.649-.248.427Z" transform="translate(-56.034 -1.823)"/><path class="c" d="M39.632,7.28c-.675.142-.791-.1-.257-.536l6.751-5.524a2.1,2.1,0,0,1,2.09-.226l5.11,2.6c.616.312.566.685-.109.827Z" transform="translate(-23.964 -0.499)"/><path class="c" d="M76.982,2.521a2.7,2.7,0,0,1-2.225.024L70.763.515C70.147.2,70.208-.028,70.9,0l8.672.4c.689.032.756.325.148.651Z" transform="translate(-43.177 0)"/><path class="c" d="M30.449,12.422c-.534.437-1.159.577-1.389.31s.08-.751.689-1.076l3.6-1.923c.609-.326.67-.233.136.2Z" transform="translate(-17.792 -5.855)"/><path class="c" d="M20.63,130.088c.266-.23.864,0,1.328.512l2.636,2.908c.463.512.389.593-.165.182l-3.276-2.435c-.554-.412-.789-.936-.522-1.166" transform="translate(-12.596 -79.801)"/><path class="c" d="M138.456,28.589c.266-.23.751.08,1.076.689l1.922,3.6c.325.609.234.67-.2.136l-2.485-3.037c-.437-.534-.576-1.159-.309-1.389" transform="translate(-84.909 -17.503)"/><path class="c" d="M128.839,18.47c.554.411.789.936.522,1.166s-.864,0-1.328-.512L125.4,16.217c-.463-.511-.39-.593.164-.181Z" transform="translate(-76.79 -9.682)"/><path class="c" d="M12.894,118.293c.437.534.576,1.159.309,1.389s-.751-.08-1.076-.689l-1.923-3.6c-.325-.609-.233-.67.2-.136Z" transform="translate(-6.145 -70.527)"/><path class="c" d="M242.763,28.8a20.351,20.351,0,0,1,7.478,7.252,19.055,19.055,0,0,1,2.766,10.047,19.344,19.344,0,0,1-2.766,10.1,20.8,20.8,0,0,1-35.67,0,19.329,19.329,0,0,1-2.765-10.1,19.041,19.041,0,0,1,2.765-10.047A20.334,20.334,0,0,1,222.05,28.8a21.345,21.345,0,0,1,20.714,0M224.11,31.815a16.6,16.6,0,0,0-6.1,5.983,15.886,15.886,0,0,0-2.257,8.3,16.181,16.181,0,0,0,2.257,8.353,16.673,16.673,0,0,0,6.1,6.067,16.329,16.329,0,0,0,8.353,2.23,16.079,16.079,0,0,0,8.268-2.23,16.75,16.75,0,0,0,6.067-6.067,16.188,16.188,0,0,0,2.257-8.353,15.994,15.994,0,0,0-3.369-9.937,16.548,16.548,0,0,0-3.921-3.7,16.315,16.315,0,0,0-9.3-2.848,16.5,16.5,0,0,0-8.353,2.2" transform="translate(-130.019 -16.031)"/><path class="c" d="M386.073,65.619,378.1,53.575q-1.807.114-2.766.113H364.494V64.6a1.841,1.841,0,0,1-1.841,1.84h-.213a1.84,1.84,0,0,1-1.84-1.84V26.992h14.73q7.393,0,11.429,3.415t4.036,9.679a13.59,13.59,0,0,1-2.371,8.184,12.365,12.365,0,0,1-6.773,4.572l7.465,10.709a1.84,1.84,0,1,1-3.044,2.069m-10.742-15.43q5.643,0,8.692-2.568T387.07,40.2q0-4.741-3.048-7.224t-8.692-2.484H364.494v19.7Z" transform="translate(-221.357 -16.569)"/><path class="c" d="M511.974,29.471a8.7,8.7,0,0,1,3.358,7.253,8.943,8.943,0,0,1-1.947,5.87,9.227,9.227,0,0,1-5.446,3.1,10.686,10.686,0,0,1,6.772,3.217,9.572,9.572,0,0,1,2.427,6.716,9.294,9.294,0,0,1-3.781,7.9q-3.781,2.823-10.5,2.822H486.153V26.846H502.69q5.926,0,9.284,2.625m-2.963,12.981a6.272,6.272,0,0,0,2.314-5.22,6.075,6.075,0,0,0-2.314-5.08,10.1,10.1,0,0,0-6.49-1.75H490.047V44.286H502.52a10.207,10.207,0,0,0,6.49-1.835m1.383,18.4a6.513,6.513,0,0,0,2.794-5.616,6.371,6.371,0,0,0-2.821-5.531q-2.824-1.975-7.846-1.975H490.047V62.854H502.52q5.079,0,7.873-2" transform="translate(-298.429 -16.48)"/><path class="c" d="M621.662,30.456a19.865,19.865,0,0,0-5.418-.819,11.733,11.733,0,0,0-6.518,1.609,4.986,4.986,0,0,0-2.456,4.374,5.724,5.724,0,0,0,1.354,3.951,9.57,9.57,0,0,0,3.331,2.4,52.25,52.25,0,0,0,5.418,1.947,46.64,46.64,0,0,1,6.462,2.342,11.442,11.442,0,0,1,4.177,3.358,9.176,9.176,0,0,1,1.722,5.813,9.2,9.2,0,0,1-1.778,5.587,11.377,11.377,0,0,1-4.995,3.753,19.263,19.263,0,0,1-7.394,1.327,20.691,20.691,0,0,1-8.043-1.637,22.183,22.183,0,0,1-5.609-3.335,1.812,1.812,0,0,1,2.262-2.831,19.627,19.627,0,0,0,4.561,2.667,17.7,17.7,0,0,0,6.886,1.467,12.408,12.408,0,0,0,7.168-1.834,5.714,5.714,0,0,0,2.653-4.938,6.025,6.025,0,0,0-1.355-4.064,8.987,8.987,0,0,0-3.33-2.427q-1.977-.847-5.531-1.975a56.5,56.5,0,0,1-6.434-2.342,10.838,10.838,0,0,1-4.121-3.273A8.964,8.964,0,0,1,602.98,35.9a8.509,8.509,0,0,1,1.693-5.249,10.712,10.712,0,0,1,4.741-3.471,18.988,18.988,0,0,1,7.055-1.213,22.706,22.706,0,0,1,6.462.96,24.044,24.044,0,0,1,4.135,1.63,1.822,1.822,0,0,1,.812,2.447l-.055.109a1.823,1.823,0,0,1-2.462.778,20.9,20.9,0,0,0-3.7-1.436" transform="translate(-369.089 -15.941)"/></g></g></svg>